<svg xmlns="http://www.w3.org/2000/svg" xmlns:xlink="http://www.w3.org/1999/xlink" width="245.32" height="40" viewBox="0 0 245.32 40">
  <defs>
    <linearGradient id="linear-gradient" x1="0.548" y1="0.196" x2="0.435" y2="0.918" gradientUnits="objectBoundingBox">
      <stop offset="0" stop-color="#26d6b8"/>
      <stop offset="1" stop-color="#03b291"/>
    </linearGradient>
    <linearGradient id="linear-gradient-2" x1="0.511" y1="0.18" x2="0.406" y2="0.918" xlink:href="#linear-gradient"/>
    <linearGradient id="linear-gradient-3" x1="0.611" y1="0.261" x2="0.477" y2="0.906" xlink:href="#linear-gradient"/>
    <linearGradient id="linear-gradient-4" x1="0.548" y1="0.026" x2="0.449" y2="1.006" gradientUnits="objectBoundingBox">
      <stop offset="0" stop-color="#ffbb45"/>
      <stop offset="1" stop-color="#ffa200"/>
    </linearGradient>
    <linearGradient id="linear-gradient-5" x1="0.565" y1="0.18" x2="0.459" y2="0.902" xlink:href="#linear-gradient-4"/>
    <linearGradient id="linear-gradient-6" x1="0.546" y1="0.24" x2="0.435" y2="0.922" xlink:href="#linear-gradient-4"/>
  </defs>
  <g id="Group_37111" data-name="Group 37111" transform="translate(-183.575 -822.452)">
    <g id="Group_37110" data-name="Group 37110" transform="translate(299.68 825.784)">
      <path id="Path_22000" data-name="Path 22000" d="M529.072,842.015q1.558-6.389,20.1-4.259l1.3-6.076H519q-5.038.416-6.492,4.154L509.6,849.546l-.07.322c.226-.036.452-.071.677-.1l.046-.007a19.819,19.819,0,0,1,2.848-.356,4.646,4.646,0,0,1,1.666.284.711.711,0,0,1,.235,1.258c-1.173,1.066-2.974,1.36-4.453,1.764-.41.112-.821.22-1.232.33l-.508.136-.558,2.553-2.233,10.543-.883,1.091h19.32l-.468-1.247,2.181-10.387,18.125.052,1.4-6.492-18.178.052Z" transform="translate(-505.13 -831.68)" fill="url(#linear-gradient)"/>
      <path id="Path_22001" data-name="Path 22001" d="M757.52,833.079l-3.324,15.84A9.394,9.394,0,0,1,753.47,851l-1.61.675h-7.479a1.8,1.8,0,0,1-1.143-1.3l3.636-17.242H729.735q1.714,1.3,1.454,2.6l-3.428,15.944.052.779a5.461,5.461,0,0,0,.779,1.973,9.022,9.022,0,0,0,3.012,1.61l.727.156,18.281-.1q2.413-.185,2.71-.953l-1.255,5.523q0,1.351-2.389,1.351l-13.036.052q-2.234.105-4,.026a31.2,31.2,0,0,1-3.168-.285l-3.168-1.039-.1.519v6.856H759.39q7.426-1.3,8.206-6.232l5.245-24.462.416-1.038a10.964,10.964,0,0,1,2.337-3.428Z" transform="translate(-646.379 -832.507)" fill="url(#linear-gradient-2)"/>
      <path id="Path_22002" data-name="Path 22002" d="M637.553,857.863l4.934-23.371,1.506-1.662H626.179l.987,1.506-6.388,30.019q-.779,3.22,2.233,3.791h29.707l1.558-7.115Q637.241,865.446,637.553,857.863Z" transform="translate(-578.918 -832.415)" fill="url(#linear-gradient-3)"/>
    </g>
    <path id="Path_22003" data-name="Path 22003" d="M236.861,830.308a6.117,6.117,0,0,1,.935,2.389l-6.388,29.967a11.562,11.562,0,0,1-1.974,2.6h18.541l-.052-.208a5.25,5.25,0,0,1-.831-2.129L253.48,832.9a8.3,8.3,0,0,1,.935-1.48,7.39,7.39,0,0,1,1.09-1.117Zm-28.617,27.007,19.164-19.736,7.271-7.427h-43.21l-2.077,9.764,1.87-1.4h20.307l-27.993,26.695h43.054l1.974-9.349-1.87,1.454Z" transform="translate(0 -4.92)" fill="url(#linear-gradient-4)"/>
    <path id="Path_22004" data-name="Path 22004" d="M426.5,826.65c-18.138-11.709-33.237,3.555-31.009,15.466.754,4.034,4.82,8.357,9.821,9.729a23.635,23.635,0,0,0,6.3.888,33.044,33.044,0,0,0,4.52-.336c-.667-1.266-2.1-1.656-2.981-2.811a4.229,4.229,0,0,1,1.26-.2,4.3,4.3,0,0,1,1.783.407,8.757,8.757,0,0,0,3.609.833,7.87,7.87,0,0,0,3.733-.972c.921-.489,1.856-.954,2.79-1.433-.619-.294-5.888-4.035-8.044-5.685a3.013,3.013,0,0,1-.357-.406,7.126,7.126,0,0,1,3.138-.759,7.771,7.771,0,0,1,3.492.894,30.813,30.813,0,0,0,4.531,2.009,12.079,12.079,0,0,0,3.611.507,29.808,29.808,0,0,0,4.819-.5C436.629,838.843,432.04,830.224,426.5,826.65Z" transform="translate(-135.261 0)" fill="url(#linear-gradient-5)"/>
    <path id="Path_22005" data-name="Path 22005" d="M423.323,851c-5.9,1.657-11.8,3.36-17.707,5a38.591,38.591,0,0,1-10.083,1.409c-5.561,0-11-.889-15.4-5.572-4.482-4.768-2.3-17.579,5.856-25.062a24.45,24.45,0,0,0-3.814,34.309c-.31-.459-.6-.928-.864-1.409a16.586,16.586,0,0,0,9.075,2.669,4.132,4.132,0,0,0-1.934,2.783c.084-.327.479-1.728,2.8-2.036a3.266,3.266,0,0,1,3.562,1.953v-.173a8.367,8.367,0,0,0-.23-.976c.621-1.452,2.475-.994,2.987.287a9.686,9.686,0,0,1,.287,1.034c-.115-2.642,1.144-4.287,3.722-5.055,2.773-.827,4.933,1.7,4.933,1.7a3.742,3.742,0,0,0-.173,1.455c1.762-4.442,5.821-1.762,5.821-1.762-.153-.536-2.068-1.609-2.068-1.609a6.265,6.265,0,0,1,5.591-4.212,6.47,6.47,0,0,1,6.1,3.509,24.339,24.339,0,0,0,3.561-8.794Q424.328,850.718,423.323,851Zm-3.64,4.192c-.313-.229-2.019-2.073-2.019-2.073.537-.047,5.194-1.479,5.194-1.479C422.533,854.861,420,855.418,419.683,855.19Z" transform="translate(-123.482 -2.759)" fill="url(#linear-gradient-6)"/>
  </g>
</svg>
