<svg xmlns="http://www.w3.org/2000/svg" xmlns:xlink="http://www.w3.org/1999/xlink" width="99.679" height="15.506" viewBox="0 0 99.679 15.506">
  <defs>
    <linearGradient id="linear-gradient" x1="0.654" y1="1" x2="0.649" gradientUnits="objectBoundingBox">
      <stop offset="0" stop-color="#fcae28"/>
      <stop offset="1" stop-color="#fedf47"/>
    </linearGradient>
  </defs>
  <g id="Group_22" data-name="Group 22" transform="translate(0)">
    <g id="star" transform="translate(0)">
      <path id="Path_263" data-name="Path 263" d="M16.258,17q0-.362-.547-.45l-4.9-.713-2.2-4.446q-.186-.4-.479-.4t-.479.4l-2.2,4.446-4.9.713Q0,16.637,0,17a.744.744,0,0,0,.244.469L3.8,20.927l-.84,4.885a1.587,1.587,0,0,0-.02.2.576.576,0,0,0,.1.347.355.355,0,0,0,.308.142.829.829,0,0,0,.391-.117l4.387-2.306,4.387,2.306a.791.791,0,0,0,.391.117.344.344,0,0,0,.3-.142.577.577,0,0,0,.1-.347,1.476,1.476,0,0,0-.01-.2l-.84-4.885L16,17.468A.706.706,0,0,0,16.258,17Z" transform="translate(0 -10.99)" fill="url(#linear-gradient)"/>
    </g>
    <g id="star-2" data-name="star" transform="translate(41.711)">
      <path id="Path_263-2" data-name="Path 263" d="M16.258,17q0-.362-.547-.45l-4.9-.713-2.2-4.446q-.186-.4-.479-.4t-.479.4l-2.2,4.446-4.9.713Q0,16.637,0,17a.744.744,0,0,0,.244.469L3.8,20.927l-.84,4.885a1.587,1.587,0,0,0-.02.2.576.576,0,0,0,.1.347.355.355,0,0,0,.308.142.829.829,0,0,0,.391-.117l4.387-2.306,4.387,2.306a.791.791,0,0,0,.391.117.344.344,0,0,0,.3-.142.577.577,0,0,0,.1-.347,1.476,1.476,0,0,0-.01-.2l-.84-4.885L16,17.468A.706.706,0,0,0,16.258,17Z" transform="translate(0 -10.99)" fill="url(#linear-gradient)"/>
    </g>
    <g id="star-3" data-name="star" transform="translate(20.855)">
      <path id="Path_263-3" data-name="Path 263" d="M16.258,17q0-.362-.547-.45l-4.9-.713-2.2-4.446q-.186-.4-.479-.4t-.479.4l-2.2,4.446-4.9.713Q0,16.637,0,17a.744.744,0,0,0,.244.469L3.8,20.927l-.84,4.885a1.587,1.587,0,0,0-.02.2.576.576,0,0,0,.1.347.355.355,0,0,0,.308.142.829.829,0,0,0,.391-.117l4.387-2.306,4.387,2.306a.791.791,0,0,0,.391.117.344.344,0,0,0,.3-.142.577.577,0,0,0,.1-.347,1.476,1.476,0,0,0-.01-.2l-.84-4.885L16,17.468A.706.706,0,0,0,16.258,17Z" transform="translate(0 -10.99)" fill="url(#linear-gradient)"/>
    </g>
    <g id="star-4" data-name="star" transform="translate(62.566)">
      <path id="Path_263-4" data-name="Path 263" d="M16.258,17q0-.362-.547-.45l-4.9-.713-2.2-4.446q-.186-.4-.479-.4t-.479.4l-2.2,4.446-4.9.713Q0,16.637,0,17a.744.744,0,0,0,.244.469L3.8,20.927l-.84,4.885a1.587,1.587,0,0,0-.02.2.576.576,0,0,0,.1.347.355.355,0,0,0,.308.142.829.829,0,0,0,.391-.117l4.387-2.306,4.387,2.306a.791.791,0,0,0,.391.117.344.344,0,0,0,.3-.142.577.577,0,0,0,.1-.347,1.476,1.476,0,0,0-.01-.2l-.84-4.885L16,17.468A.706.706,0,0,0,16.258,17Z" transform="translate(0 -10.99)" fill="url(#linear-gradient)"/>
    </g>
    <g id="star-5" data-name="star" transform="translate(83.421)">
      <path id="Path_263-5" data-name="Path 263" d="M16.258,17q0-.362-.547-.45l-4.9-.713-2.2-4.446q-.186-.4-.479-.4t-.479.4l-2.2,4.446-4.9.713Q0,16.637,0,17a.744.744,0,0,0,.244.469L3.8,20.927l-.84,4.885a1.587,1.587,0,0,0-.02.2.576.576,0,0,0,.1.347.355.355,0,0,0,.308.142.829.829,0,0,0,.391-.117l4.387-2.306,4.387,2.306a.791.791,0,0,0,.391.117.344.344,0,0,0,.3-.142.577.577,0,0,0,.1-.347,1.476,1.476,0,0,0-.01-.2l-.84-4.885L16,17.468A.706.706,0,0,0,16.258,17Z" transform="translate(0 -10.99)" fill="url(#linear-gradient)"/>
    </g>
  </g>
</svg>
