<svg xmlns="http://www.w3.org/2000/svg" width="67.514" height="87.283" viewBox="0 0 67.514 87.283">
  <path id="Union_10" data-name="Union 10" d="M43.365,108.494v-8.067h8.62l-2-24.419a8,8,0,0,1-6.969-6.881L23.315,88.986l-2.1-2.118L42.952,64.962V45.07L21.2,23.323l2.111-2.11L43.323,41.22a8.015,8.015,0,0,1,7.629-5.589h7.778a8.015,8.015,0,0,1,7.665,5.707L86.366,21.213l2.1,2.119L66.73,45.238V64.627l21.99,21.99-2.11,2.11L66.7,68.814a7.98,7.98,0,0,1-6.572,7.131l-2.287,24.483h9.853v8.067l-12.316-2.172L43.366,108.5h0ZM54.841,62.588a7.35,7.35,0,0,0,4.267-1.361l-1.1-1.1a5.977,5.977,0,0,1-6.159.106l-1.1,1.112A7.347,7.347,0,0,0,54.841,62.588ZM47.41,55.1a7.485,7.485,0,0,0,1.233,4.127l1.08-1.088a5.976,5.976,0,0,1,.058-6.239l-1.053-1.053A7.487,7.487,0,0,0,47.41,55.1Zm12.573-3.064a5.979,5.979,0,0,1,.078,5.923l1.09,1.09a7.523,7.523,0,0,0-.113-8.076Zm-2.111-2.111,1.063-1.071a7.368,7.368,0,0,0-8.062-.084l1.075,1.075a5.98,5.98,0,0,1,5.925.08Z" transform="translate(-21.205 -21.213)" fill="#05b79a"/>
</svg>
