<svg xmlns="http://www.w3.org/2000/svg" width="43.562" height="60" viewBox="0 0 43.562 60">
  <path id="Union_5" data-name="Union 5" d="M21.781,60V0a23.068,23.068,0,0,1,3.96,8.875,100.3,100.3,0,0,1,1.17,11.454l2.34,6.523v1.9L42.392,38V35.272l.54-1.365.63,1.365V46.043h-1.17V43.995H26.911v4.93l8.28,6.22V58.1l-.99.91h-7.29V58.1h-1.17V52.87L24.661,60ZM18.9,60l-1.08-7.13V58.1h-1.17v.91H9.361l-.99-.91V55.145l8.28-6.22v-4.93H1.17v2.048H0V35.272l.63-1.365.54,1.365V38l13.141-9.254v-1.9l2.34-6.523a100.255,100.255,0,0,1,1.17-11.454A23.069,23.069,0,0,1,21.781,0V60Z" fill="#05b79a"/>
</svg>
