<svg xmlns="http://www.w3.org/2000/svg" width="78" height="64.973" viewBox="0 0 78 64.973">
  <path id="bird" d="M78.342,19.06c-.554-3.881-20.29-3.659-20.29-3.659v.665H54.5V14.736h-2.55V13.183H50.845v1.552H43.639v-6.1h0V4.868a.994.994,0,0,0-1-1H39.869V2.761c2.55,1.331,10.311,0,10.311,0s-8.537-.887-10.311-.554v-2A.109.109,0,0,0,39.758.1h-.776a.109.109,0,0,0-.111.111V2.428c-2.55-1.441-10.311,0-10.311,0s8.537.887,10.311.554V3.87h-2.55a.994.994,0,0,0-1,1v6.209h0v3.548h-7.1V13.072H26.9v1.552h-2.55v1.331H20.8V15.29S1.062,15.068.508,18.949s1.774,8.87,5.544,9.868,16.3,2.55,18.294,2.661c1.441.111,7.872,0,11.088,0,.111,6.32.333,12.307.665,15.855.222,1.774.554,4.324,1.109,6.763L26.564,56.979s-1.885,1.441-1.552,3.326c.443,1.885,7.1,2.439,13.97,2.883.222,1.109.444,1.885.444,1.885a15.178,15.178,0,0,0,.444-1.885c6.874-.554,13.638-1,13.97-2.883.444-1.885-1.552-3.326-1.552-3.326L41.532,54.1c.444-2.55.887-4.989,1.109-6.763.333-3.548.554-9.535.665-15.855H54.393c2-.111,14.525-1.663,18.294-2.661C76.679,27.93,78.9,22.94,78.342,19.06Zm-62.866,2H12.261L11.152,17.84A4.7,4.7,0,0,1,15.476,21.055Zm-4.435-3.1L9.932,21.166h-3.1A4.391,4.391,0,0,1,11.041,17.951ZM6.606,22.5a3.986,3.986,0,0,1,.222-1.22l2.55,1.885-1,2.994A4.679,4.679,0,0,1,6.606,22.5Zm4.546,4.546a5.273,5.273,0,0,1-2.55-.776l2.55-1.774,2.55,1.774A5.273,5.273,0,0,1,11.152,27.043Zm2.772-1-1-2.994,2.661-1.885a4.715,4.715,0,0,1,.222,1.22A4.77,4.77,0,0,1,13.924,26.045Zm27.608,6.1H37.319L37.1,27.93a3.342,3.342,0,0,1,1.552-3.1h.111a1.894,1.894,0,0,1,1.552,0h0a3.143,3.143,0,0,1,1.552,3.1ZM72.355,21.055H69.14L68.031,17.84A4.7,4.7,0,0,1,72.355,21.055Zm-4.435-3.1-1.109,3.215H63.6A4.629,4.629,0,0,1,67.92,17.951ZM63.485,22.5a3.986,3.986,0,0,1,.222-1.22l2.55,1.885-1,2.994A4.679,4.679,0,0,1,63.485,22.5Zm4.546,4.546a5.273,5.273,0,0,1-2.55-.776l2.55-1.774,2.55,1.774A5.273,5.273,0,0,1,68.031,27.043Zm2.772-1-1-2.883,2.661-1.885a4.715,4.715,0,0,1,.222,1.22A4.73,4.73,0,0,1,70.8,26.045Z" transform="translate(-0.427 -0.1)" fill="#05b79a"/>
</svg>
