<svg xmlns="http://www.w3.org/2000/svg" width="78.535" height="60" viewBox="0 0 78.535 60">
  <g id="Group_17" data-name="Group 17" transform="translate(-1149 -3378)">
    <path id="Union_26" data-name="Union 26" d="M-3488.057,2688v-7.644h8.217l-1.815-15.1h11.561l-.956,15.1h7.452V2688Zm-24.65-25.319a2.293,2.293,0,0,1-2.292-2.293v-14.045a2.293,2.293,0,0,1,2.292-2.293l36.574-1.433,37.375,1.433a2.294,2.294,0,0,1,2.293,2.293v14.045a2.294,2.294,0,0,1-2.293,2.293l-37.287,1.146Zm30.951-21.044v-4.376a5,5,0,0,1,4.383-4.963h-7.673a1,1,0,0,1-1-1,1,1,0,0,1,1-1h7.037l2.421-2.293,2.421,2.293h7.038a1,1,0,0,1,1,1,1,1,0,0,1-1,1h-8.076a5,5,0,0,1,4.383,4.963v4.376Z" transform="translate(4664 750)" fill="#05b79a"/>
  </g>
</svg>
