<svg xmlns="http://www.w3.org/2000/svg" width="78.428" height="60" viewBox="0 0 78.428 60">
  <path id="Union_6" data-name="Union 6" d="M-1490.242-1020v-8.3h8.251l-1.446-14.752v-.62l-33.563-2.158v-19.377h12l1.45-1.845h-7.909v-1.845h9.358l2.175-2.769,2.175,2.769h8.436v1.845h-6.986l1.45,1.845h11.419v-5.014l5.633-9.775,5.964,9.775v5.014h11.123l1.45-1.845h-7.909v-1.845h9.358l2.175-2.769,2.175,2.769h8.436v1.845h-6.986l1.45,1.845h12v19.377l-33.268,2.174v.6l-1.88,14.752h8.391v8.3Z" transform="translate(1517 1080)" fill="#05b79a"/>
</svg>
