<svg xmlns="http://www.w3.org/2000/svg" width="79.746" height="60" viewBox="0 0 79.746 60">
  <g id="turbo" transform="translate(-0.9 -0.85)">
    <g id="Group_1914" data-name="Group 1914" transform="translate(0.9 0.85)">
      <path id="Path_7816" data-name="Path 7816" d="M27.35,9.369H21.861l-.61.3L19.116,7.539a.286.286,0,0,0-.457,0L16.524,9.674l-.762-.3H10.425c-.915,0-1.525.3-1.525.762s.61.762,1.525.762H27.35c.915,0,1.525-.3,1.525-.762S28.265,9.369,27.35,9.369Z" transform="translate(3.298 2.6)" fill="#05b79a"/>
      <g id="Group_1913" data-name="Group 1913" transform="translate(28.818)">
        <path id="Path_7817" data-name="Path 7817" d="M35.505,50.329a1.934,1.934,0,0,1-.152-.915l1.067-15.1.3-19.822A20.646,20.646,0,0,0,32.3,2.146l-.762-1.067a.572.572,0,0,0-.915,0l-.762,1.067A20.647,20.647,0,0,0,25.442,14.5h0l.3,19.822H25.9l1.22,15.4a1.934,1.934,0,0,1-.152.915L19.8,54.141V60.85L31.541,57.8l11.741,2.9V54.141Z" transform="translate(-19.8 -0.85)" fill="#05b79a"/>
      </g>
      <path id="Path_7818" data-name="Path 7818" d="M33.53,14.669l-5.642.152a18.273,18.273,0,0,0,.152-4.117h0v-.3H17.673v.3c-.152,3.355.61,5.947.915,4.422L2.12,16.652A1.2,1.2,0,0,0,.9,17.871V29a1.2,1.2,0,0,0,1.22,1.22l31.563.457h.457Z" transform="translate(-0.9 4.162)" fill="#05b79a"/>
    </g>
    <path id="Path_7819" data-name="Path 7819" d="M33.572,9.369h5.489l.762.3,2.135-2.135a.286.286,0,0,1,.457,0l2.135,2.135.762-.3H50.8c.915,0,1.525.3,1.525.762s-.61.762-1.525.762H33.725c-.915,0-1.525-.3-1.525-.762S32.657,9.369,33.572,9.369Z" transform="translate(16.426 3.45)" fill="#05b79a"/>
    <path id="Path_7820" data-name="Path 7820" d="M32.01,14.669l5.642.152A18.273,18.273,0,0,1,37.5,10.7h0v-.3H47.868v.3c.152,3.355-.61,5.947-.915,4.422L63.42,16.652a1.2,1.2,0,0,1,1.22,1.22V29a1.2,1.2,0,0,1-1.22,1.22l-31.563.457H31.4Z" transform="translate(16.006 5.012)" fill="#05b79a"/>
  </g>
</svg>
