<svg xmlns="http://www.w3.org/2000/svg" width="76.526" height="60" viewBox="0 0 76.526 60">
  <g id="use" transform="translate(-2.5 -0.925)">
    <path id="Path_7821" data-name="Path 7821" d="M78.715,28.243a1.227,1.227,0,0,1-1.244,1.244l-14.621.467-7.777.156-8.71.311H33.919L3.744,29.8A1.338,1.338,0,0,1,2.5,28.554V13a1.227,1.227,0,0,1,1.244-1.244L34.853,10.2H46.518l16.643.778,14.621.622a1.338,1.338,0,0,1,1.244,1.244Z" transform="translate(0 5.151)" fill="#05b79a"/>
    <path id="Path_7822" data-name="Path 7822" d="M27.4,3.7l-3.889.311A4.6,4.6,0,0,0,23.2,5.566V12.41H35.021V5.566a2.509,2.509,0,0,0-.467-1.4L30.666,3.7Z" transform="translate(11.497 1.541)" fill="#05b79a"/>
    <path id="Path_7823" data-name="Path 7823" d="M27.9,3.4Z" transform="translate(14.107 1.375)" fill="#05b79a"/>
    <path id="Path_7824" data-name="Path 7824" d="M39.276,2.908h-5.6l-.778.311L30.877,1.042a.292.292,0,0,0-.467,0L28.233,3.219l-.778-.311h-5.6c-.933,0-1.555.311-1.555.778s.622.778,1.555.778H39.276c.933,0,1.555-.311,1.555-.778S40.209,2.908,39.276,2.908Z" transform="translate(9.886 0)" fill="#05b79a"/>
    <g id="Group_1915" data-name="Group 1915" transform="translate(55.073 5.397)">
      <path id="Path_7825" data-name="Path 7825" d="M44.077,13.6V9.555A6.261,6.261,0,0,0,40.189,3.8,6.261,6.261,0,0,0,36.3,9.555v3.733Z" transform="translate(-36.3 -3.8)" fill="#05b79a"/>
    </g>
    <path id="Path_7826" data-name="Path 7826" d="M49.352,23.711v6.844l-9.332-.467.467-5.444h-11.2l.467,5.6-9.021.311V23.711L12.8,23.4V42.687a6.261,6.261,0,0,0,3.889,5.755,6.261,6.261,0,0,0,3.889-5.755V36.777l9.644-.311.156,2.333a1.973,1.973,0,0,1-.156.933l-7.31.467v6.844H34.887l11.977-.156V40.2l-7.31-.778a1.973,1.973,0,0,1-.156-.933l.156-2.178,9.8.467v5.755a6.261,6.261,0,0,0,3.889,5.755,6.261,6.261,0,0,0,3.889-5.755V23.4Zm-28.62,11.51V32.11L29.91,31.8l.311,2.955Zm28.62,0-9.644-.467.311-3.111,9.332.467Z" transform="translate(5.721 12.483)" fill="#05b79a"/>
    <g id="Group_1916" data-name="Group 1916" transform="translate(18.521 5.397)">
      <path id="Path_7827" data-name="Path 7827" d="M12.8,13.6V9.555A6.261,6.261,0,0,1,16.689,3.8a6.261,6.261,0,0,1,3.889,5.755v3.733Z" transform="translate(-12.8 -3.8)" fill="#05b79a"/>
    </g>
  </g>
</svg>
